<?xml version="1.0" encoding="UTF-8"?>
<svg width="92px" height="86px" viewBox="0 0 92 86" version="1.1" xmlns="http://www.w3.org/2000/svg" xmlns:xlink="http://www.w3.org/1999/xlink">
    <title>icons8-linkedin-2</title>
    <g id="Page-1" stroke="none" stroke-width="1" fill="none" fill-rule="evenodd">
        <g id="icons8-linkedin-circled" transform="translate(-758.000000, -19.000000)" fill="#FFFFFF" fill-rule="nonzero">
            <g id="icons8-linkedin-2" transform="translate(758.000000, 19.000000)">
                <path d="M12,-2.66453526e-15 C5.06,-2.66453526e-15 0.0195312,4.1589062 0.0195312,9.8789064 C0.0195312,15.6189068 5.18,19.9609368 12,19.9609368 C18.94,19.9609368 23.980468,15.7217188 23.980468,9.7617188 C23.660468,4.0217188 18.72,-2.66453526e-15 12,-2.66453526e-15 Z M2,23.9804688 C0.9,23.9804688 0,24.8804688 0,25.9804688 L0,83.9804688 C0,85.0804688 0.9,85.9804688 2,85.9804688 L22,85.9804688 C23.1,85.9804688 24,85.0804688 24,83.9804688 L24,25.9804688 C24,24.8804688 23.1,23.9804688 22,23.9804688 L2,23.9804688 Z M32,23.9804688 C30.9,23.9804688 30,24.8804688 30,25.9804688 L30,83.9804688 C30,85.0804688 30.9,85.9804688 32,85.9804688 L50,85.9804688 C51.104,85.9804688 52,85.0844688 52,83.9804688 L52,53.9804688 L52,53.4804688 L52,52.9804688 C52,48.2404688 55.64125,44.3795308 60.28125,44.0195308 C60.52125,43.9795308 60.76,43.9804688 61,43.9804688 C61.24,43.9804688 61.47875,43.9795308 61.71875,44.0195308 C66.35875,44.3795308 70,48.2404688 70,52.9804688 L70,83.9804688 C70,85.0844688 70.896,85.9804688 72,85.9804688 L90,85.9804688 C91.1,85.9804688 92,85.0804688 92,83.9804688 L92,49.9804688 C92,37.0404688 85.058126,23.9804688 69.578124,23.9804688 C62.538124,23.9804688 57.22,26.7009368 54,28.9609368 L54,25.9804688 C54,24.8804688 53.1,23.9804688 52,23.9804688 L32,23.9804688 Z" id="Shape"></path>
            </g>
        </g>
    </g>
</svg>