<?xml version="1.0" encoding="utf-8"?>
<!-- Generator: Adobe Illustrator 23.0.6, SVG Export Plug-In . SVG Version: 6.00 Build 0)  -->
<svg version="1.1" id="Ebene_1" xmlns="http://www.w3.org/2000/svg" xmlns:xlink="http://www.w3.org/1999/xlink" x="0px" y="0px"
	 viewBox="0 0 1424.7 59" style="enable-background:new 0 0 1424.7 59;" xml:space="preserve">
<path d="M441.9,14.4c65.8-8.4,197.2-0.1,243.6,6.4c25.9,3.6,52.5,5.6,79.2,5.6c86.2,0,113.1-16,167-16c53.9,0,134.7,20.1,285.2,20.1
	c149.2,0,157.6-20.1,217.7-20.1v-25l-1173-0.6V2.2C348.9,2.2,393.1,20.6,441.9,14.4z"/>
<path d="M1163-15.2L-10-14.7v25c60.2,0,68.6,25.1,217.7,25.1c150.5,0,211.3-20.8,255.7-23.2"/>
</svg>
