{
    "asset" : {
        "generator" : "Khronos glTF Blender I/O v1.8.19",
        "version" : "2.0"
    },
    "scene" : 0,
    "scenes" : [
        {
            "name" : "Scene",
            "nodes" : [
                2
            ]
        }
    ],
    "nodes" : [
        {
            "mesh" : 0,
            "name" : "typeMesh2",
            "rotation" : [
                -0.7071068286895752,
                0,
                0,
                0.7071067094802856
            ],
            "translation" : [
                -42.986724853515625,
                0,
                0
            ]
        },
        {
            "mesh" : 1,
            "name" : "typeMesh3",
            "rotation" : [
                -0.7071068286895752,
                0,
                0,
                0.7071067094802856
            ],
            "scale" : [
                1.2455826997756958,
                1.2455826997756958,
                1.2455826997756958
            ],
            "translation" : [
                -11.313552856445312,
                -17.79651641845703,
                0
            ]
        },
        {
            "children" : [
                0,
                1
            ],
            "name" : "Text",
            "rotation" : [
                0.7071068286895752,
                0,
                0,
                0.7071067094802856
            ],
            "scale" : [
                0.009999999776482582,
                0.009999999776482582,
                0.009999999776482582
            ]
        }
    ],
    "materials" : [
        {
            "doubleSided" : true,
            "emissiveFactor" : [
                0.38132554292678833,
                0.41788482666015625,
                0.41788503527641296
            ],
            "name" : "typeBlinn1.002",
            "pbrMetallicRoughness" : {
                "baseColorFactor" : [
                    0.9999988079071045,
                    0.9999989867210388,
                    1,
                    1
                ],
                "metallicFactor" : 0.5,
                "roughnessFactor" : 0.7487671971321106
            }
        },
        {
            "doubleSided" : true,
            "emissiveFactor" : [
                0.38132554292678833,
                0.41788482666015625,
                0.41788503527641296
            ],
            "name" : "typeBlinn2.001",
            "pbrMetallicRoughness" : {
                "baseColorFactor" : [
                    0.9999988079071045,
                    0.9999989867210388,
                    1,
                    1
                ],
                "metallicFactor" : 0.5,
                "roughnessFactor" : 0.7487671971321106
            }
        }
    ],
    "meshes" : [
        {
            "name" : "Mesh.005",
            "primitives" : [
                {
                    "attributes" : {
                        "POSITION" : 0,
                        "NORMAL" : 1,
                        "TEXCOORD_0" : 2
                    },
                    "indices" : 3,
                    "material" : 0
                }
            ]
        },
        {
            "name" : "Mesh.004",
            "primitives" : [
                {
                    "attributes" : {
                        "POSITION" : 4,
                        "NORMAL" : 5,
                        "TEXCOORD_0" : 6
                    },
                    "indices" : 7,
                    "material" : 1
                }
            ]
        }
    ],
    "accessors" : [
        {
            "bufferView" : 0,
            "componentType" : 5126,
            "count" : 8029,
            "max" : [
                92.88984680175781,
                2.5,
                0.17786762118339539
            ],
            "min" : [
                1.0995452404022217,
                0,
                -12.337544441223145
            ],
            "type" : "VEC3"
        },
        {
            "bufferView" : 1,
            "componentType" : 5126,
            "count" : 8029,
            "type" : "VEC3"
        },
        {
            "bufferView" : 2,
            "componentType" : 5126,
            "count" : 8029,
            "type" : "VEC2"
        },
        {
            "bufferView" : 3,
            "componentType" : 5123,
            "count" : 31800,
            "type" : "SCALAR"
        },
        {
            "bufferView" : 4,
            "componentType" : 5126,
            "count" : 752,
            "max" : [
                14.908539772033691,
                2.5,
                0
            ],
            "min" : [
                0.1899949610233307,
                0,
                -12.337544441223145
            ],
            "type" : "VEC3"
        },
        {
            "bufferView" : 5,
            "componentType" : 5126,
            "count" : 752,
            "type" : "VEC3"
        },
        {
            "bufferView" : 6,
            "componentType" : 5126,
            "count" : 752,
            "type" : "VEC2"
        },
        {
            "bufferView" : 7,
            "componentType" : 5123,
            "count" : 2868,
            "type" : "SCALAR"
        }
    ],
    "bufferViews" : [
        {
            "buffer" : 0,
            "byteLength" : 96348,
            "byteOffset" : 0
        },
        {
            "buffer" : 0,
            "byteLength" : 96348,
            "byteOffset" : 96348
        },
        {
            "buffer" : 0,
            "byteLength" : 64232,
            "byteOffset" : 192696
        },
        {
            "buffer" : 0,
            "byteLength" : 63600,
            "byteOffset" : 256928
        },
        {
            "buffer" : 0,
            "byteLength" : 9024,
            "byteOffset" : 320528
        },
        {
            "buffer" : 0,
            "byteLength" : 9024,
            "byteOffset" : 329552
        },
        {
            "buffer" : 0,
            "byteLength" : 6016,
            "byteOffset" : 338576
        },
        {
            "buffer" : 0,
            "byteLength" : 5736,
            "byteOffset" : 344592
        }
    ],
    "buffers" : [
        {
            "byteLength" : 350328,
            "uri" : "Title.bin"
        }
    ]
}
