{
    "asset" : {
        "generator" : "Khronos glTF Blender I/O v1.8.19",
        "version" : "2.0"
    },
    "scene" : 0,
    "scenes" : [
        {
            "name" : "Scene",
            "nodes" : [
                0
            ]
        }
    ],
    "nodes" : [
        {
            "mesh" : 0,
            "name" : "Text"
        }
    ],
    "materials" : [
        {
            "doubleSided" : true,
            "name" : "Material.002",
            "pbrMetallicRoughness" : {
                "baseColorFactor" : [
                    0.03967835381627083,
                    0.03967835381627083,
                    0.03967835381627083,
                    1
                ],
                "metallicFactor" : 0,
                "roughnessFactor" : 0.5
            }
        }
    ],
    "meshes" : [
        {
            "name" : "Text",
            "primitives" : [
                {
                    "attributes" : {
                        "POSITION" : 0,
                        "NORMAL" : 1,
                        "TEXCOORD_0" : 2
                    },
                    "indices" : 3,
                    "material" : 0
                }
            ]
        }
    ],
    "accessors" : [
        {
            "bufferView" : 0,
            "componentType" : 5126,
            "count" : 4202,
            "max" : [
                1.0382517576217651,
                0,
                0.5547773838043213
            ],
            "min" : [
                -1.024770975112915,
                0,
                -0.3745698034763336
            ],
            "type" : "VEC3"
        },
        {
            "bufferView" : 1,
            "componentType" : 5126,
            "count" : 4202,
            "type" : "VEC3"
        },
        {
            "bufferView" : 2,
            "componentType" : 5126,
            "count" : 4202,
            "type" : "VEC2"
        },
        {
            "bufferView" : 3,
            "componentType" : 5123,
            "count" : 9639,
            "type" : "SCALAR"
        }
    ],
    "bufferViews" : [
        {
            "buffer" : 0,
            "byteLength" : 50424,
            "byteOffset" : 0
        },
        {
            "buffer" : 0,
            "byteLength" : 50424,
            "byteOffset" : 50424
        },
        {
            "buffer" : 0,
            "byteLength" : 33616,
            "byteOffset" : 100848
        },
        {
            "buffer" : 0,
            "byteLength" : 19278,
            "byteOffset" : 134464
        }
    ],
    "buffers" : [
        {
            "byteLength" : 153744,
            "uri" : "TitleFIVE.bin"
        }
    ]
}
