{
    "asset" : {
        "generator" : "Khronos glTF Blender I/O v1.8.19",
        "version" : "2.0"
    },
    "scene" : 0,
    "scenes" : [
        {
            "name" : "Scene",
            "nodes" : [
                0
            ]
        }
    ],
    "nodes" : [
        {
            "mesh" : 0,
            "name" : "Text"
        }
    ],
    "materials" : [
        {
            "doubleSided" : true,
            "name" : "Material.002",
            "pbrMetallicRoughness" : {
                "baseColorFactor" : [
                    0.03967835381627083,
                    0.03967835381627083,
                    0.03967835381627083,
                    1
                ],
                "metallicFactor" : 0,
                "roughnessFactor" : 0.5
            }
        }
    ],
    "meshes" : [
        {
            "name" : "Text",
            "primitives" : [
                {
                    "attributes" : {
                        "POSITION" : 0,
                        "NORMAL" : 1,
                        "TEXCOORD_0" : 2
                    },
                    "indices" : 3,
                    "material" : 0
                }
            ]
        }
    ],
    "accessors" : [
        {
            "bufferView" : 0,
            "componentType" : 5126,
            "count" : 6224,
            "max" : [
                1.6591802835464478,
                0,
                0.5547773838043213
            ],
            "min" : [
                -1.6726610660552979,
                0,
                -0.3745698034763336
            ],
            "type" : "VEC3"
        },
        {
            "bufferView" : 1,
            "componentType" : 5126,
            "count" : 6224,
            "type" : "VEC3"
        },
        {
            "bufferView" : 2,
            "componentType" : 5126,
            "count" : 6224,
            "type" : "VEC2"
        },
        {
            "bufferView" : 3,
            "componentType" : 5123,
            "count" : 14001,
            "type" : "SCALAR"
        }
    ],
    "bufferViews" : [
        {
            "buffer" : 0,
            "byteLength" : 74688,
            "byteOffset" : 0
        },
        {
            "buffer" : 0,
            "byteLength" : 74688,
            "byteOffset" : 74688
        },
        {
            "buffer" : 0,
            "byteLength" : 49792,
            "byteOffset" : 149376
        },
        {
            "buffer" : 0,
            "byteLength" : 28002,
            "byteOffset" : 199168
        }
    ],
    "buffers" : [
        {
            "byteLength" : 227172,
            "uri" : "TitleFour.bin"
        }
    ]
}
