{
    "asset" : {
        "generator" : "Khronos glTF Blender I/O v1.8.19",
        "version" : "2.0"
    },
    "scene" : 0,
    "scenes" : [
        {
            "name" : "Scene",
            "nodes" : [
                0
            ]
        }
    ],
    "nodes" : [
        {
            "mesh" : 0,
            "name" : "Text"
        }
    ],
    "materials" : [
        {
            "doubleSided" : true,
            "name" : "Material.002",
            "pbrMetallicRoughness" : {
                "metallicFactor" : 0,
                "roughnessFactor" : 0.5
            }
        }
    ],
    "meshes" : [
        {
            "name" : "Text",
            "primitives" : [
                {
                    "attributes" : {
                        "POSITION" : 0,
                        "NORMAL" : 1,
                        "TEXCOORD_0" : 2
                    },
                    "indices" : 3,
                    "material" : 0
                }
            ]
        }
    ],
    "accessors" : [
        {
            "bufferView" : 0,
            "componentType" : 5126,
            "count" : 14073,
            "max" : [
                2.837125778198242,
                0,
                1.103777289390564
            ],
            "min" : [
                -2.836644172668457,
                0,
                -0.3745698034763336
            ],
            "type" : "VEC3"
        },
        {
            "bufferView" : 1,
            "componentType" : 5126,
            "count" : 14073,
            "type" : "VEC3"
        },
        {
            "bufferView" : 2,
            "componentType" : 5126,
            "count" : 14073,
            "type" : "VEC2"
        },
        {
            "bufferView" : 3,
            "componentType" : 5123,
            "count" : 31800,
            "type" : "SCALAR"
        }
    ],
    "bufferViews" : [
        {
            "buffer" : 0,
            "byteLength" : 168876,
            "byteOffset" : 0
        },
        {
            "buffer" : 0,
            "byteLength" : 168876,
            "byteOffset" : 168876
        },
        {
            "buffer" : 0,
            "byteLength" : 112584,
            "byteOffset" : 337752
        },
        {
            "buffer" : 0,
            "byteLength" : 63600,
            "byteOffset" : 450336
        }
    ],
    "buffers" : [
        {
            "byteLength" : 513936,
            "uri" : "TitleThree.bin"
        }
    ]
}
