{
    "asset" : {
        "generator" : "Khronos glTF Blender I/O v1.8.19",
        "version" : "2.0"
    },
    "scene" : 0,
    "scenes" : [
        {
            "name" : "Scene",
            "nodes" : [
                0
            ]
        }
    ],
    "nodes" : [
        {
            "mesh" : 0,
            "name" : "Text"
        }
    ],
    "materials" : [
        {
            "doubleSided" : true,
            "name" : "Material.002",
            "pbrMetallicRoughness" : {
                "baseColorFactor" : [
                    0.07323414832353592,
                    0.07323414832353592,
                    0.07323414832353592,
                    1
                ],
                "metallicFactor" : 0,
                "roughnessFactor" : 0.5
            }
        }
    ],
    "meshes" : [
        {
            "name" : "Text",
            "primitives" : [
                {
                    "attributes" : {
                        "POSITION" : 0,
                        "NORMAL" : 1,
                        "TEXCOORD_0" : 2
                    },
                    "indices" : 3,
                    "material" : 0
                }
            ]
        }
    ],
    "accessors" : [
        {
            "bufferView" : 0,
            "componentType" : 5126,
            "count" : 10696,
            "max" : [
                2.0225205421447754,
                0,
                1.103777289390564
            ],
            "min" : [
                -2.0220391750335693,
                0,
                -0.3673480153083801
            ],
            "type" : "VEC3"
        },
        {
            "bufferView" : 1,
            "componentType" : 5126,
            "count" : 10696,
            "type" : "VEC3"
        },
        {
            "bufferView" : 2,
            "componentType" : 5126,
            "count" : 10696,
            "type" : "VEC2"
        },
        {
            "bufferView" : 3,
            "componentType" : 5123,
            "count" : 24030,
            "type" : "SCALAR"
        }
    ],
    "bufferViews" : [
        {
            "buffer" : 0,
            "byteLength" : 128352,
            "byteOffset" : 0
        },
        {
            "buffer" : 0,
            "byteLength" : 128352,
            "byteOffset" : 128352
        },
        {
            "buffer" : 0,
            "byteLength" : 85568,
            "byteOffset" : 256704
        },
        {
            "buffer" : 0,
            "byteLength" : 48060,
            "byteOffset" : 342272
        }
    ],
    "buffers" : [
        {
            "byteLength" : 390332,
            "uri" : "Title_Two.bin"
        }
    ]
}
