<?xml version="1.0" encoding="utf-8"?>
<!-- Generator: Adobe Illustrator 24.2.1, SVG Export Plug-In . SVG Version: 6.00 Build 0)  -->
<svg version="1.1" id="Ebene_1" xmlns="http://www.w3.org/2000/svg" xmlns:xlink="http://www.w3.org/1999/xlink" x="0px" y="0px"
	 viewBox="0 0 24 24" style="enable-background:new 0 0 24 24;" xml:space="preserve">
<style type="text/css">
	.st0{fill:none;}
	.st1{fill:#FFFFFF;}
</style>
<path class="st0" d="M0,0h24v24H0V0z"/>
<path class="st1" d="M12,2C6.5,2,2,6.5,2,12s4.5,10,10,10h5v-2h-5c-4.3,0-8-3.7-8-8s3.7-8,8-8s8,3.7,8,8v1.4c0,0.8-0.7,1.6-1.5,1.6
	S17,14.2,17,13.4V12c0-2.8-2.2-5-5-5s-5,2.2-5,5s2.2,5,5,5c1.4,0,2.6-0.6,3.5-1.5c0.7,0.9,1.8,1.5,3,1.5c2,0,3.5-1.6,3.5-3.6V12
	C22,6.5,17.5,2,12,2z M12,15c-1.7,0-3-1.3-3-3s1.3-3,3-3s3,1.3,3,3S13.7,15,12,15z"/>
</svg>
