{
    "asset" : {
        "generator" : "Khronos glTF Blender I/O v1.8.19",
        "version" : "2.0"
    },
    "scene" : 0,
    "scenes" : [
        {
            "name" : "Scene",
            "nodes" : [
                0
            ]
        }
    ],
    "nodes" : [
        {
            "mesh" : 0,
            "name" : "Text"
        }
    ],
    "materials" : [
        {
            "doubleSided" : true,
            "name" : "Material.002",
            "pbrMetallicRoughness" : {
                "baseColorFactor" : [
                    0.07323414832353592,
                    0.07323414832353592,
                    0.07323414832353592,
                    1
                ],
                "metallicFactor" : 0,
                "roughnessFactor" : 0.5
            }
        }
    ],
    "meshes" : [
        {
            "name" : "Text",
            "primitives" : [
                {
                    "attributes" : {
                        "POSITION" : 0,
                        "NORMAL" : 1,
                        "TEXCOORD_0" : 2
                    },
                    "indices" : 3,
                    "material" : 0
                }
            ]
        }
    ],
    "accessors" : [
        {
            "bufferView" : 0,
            "componentType" : 5126,
            "count" : 7468,
            "max" : [
                1.59091055393219,
                0,
                0.5547773838043213
            ],
            "min" : [
                -1.5976511240005493,
                0,
                -0.3745698034763336
            ],
            "type" : "VEC3"
        },
        {
            "bufferView" : 1,
            "componentType" : 5126,
            "count" : 7468,
            "type" : "VEC3"
        },
        {
            "bufferView" : 2,
            "componentType" : 5126,
            "count" : 7468,
            "type" : "VEC2"
        },
        {
            "bufferView" : 3,
            "componentType" : 5123,
            "count" : 16743,
            "type" : "SCALAR"
        }
    ],
    "bufferViews" : [
        {
            "buffer" : 0,
            "byteLength" : 89616,
            "byteOffset" : 0
        },
        {
            "buffer" : 0,
            "byteLength" : 89616,
            "byteOffset" : 89616
        },
        {
            "buffer" : 0,
            "byteLength" : 59744,
            "byteOffset" : 179232
        },
        {
            "buffer" : 0,
            "byteLength" : 33486,
            "byteOffset" : 238976
        }
    ],
    "buffers" : [
        {
            "byteLength" : 272464,
            "uri" : "Title_One.bin"
        }
    ]
}
