<?xml version="1.0" encoding="UTF-8"?>
<svg width="75px" height="75px" viewBox="0 0 75 75" version="1.1" xmlns="http://www.w3.org/2000/svg" xmlns:xlink="http://www.w3.org/1999/xlink">
    <title>icons8-dribbble</title>
    <g id="Page-1" stroke="none" stroke-width="1" fill="none" fill-rule="evenodd">
        <g id="icons8-linkedin-circled" transform="translate(0.000000, -643.000000)" fill="#FFFFFF" fill-rule="nonzero">
            <g id="icons8-dribbble" transform="translate(0.000000, 643.000000)">
                <path d="M37.5,0 C16.8212906,0 0,16.8212906 0,37.5 C0,58.1787125 16.8212906,75 37.5,75 C58.1787125,75 75,58.1787125 75,37.5 C75,16.8212906 58.1787125,0 37.5,0 Z M37.5,6.25 C45.4223625,6.25 52.6000969,9.22851562 58.1054688,14.0625 C57.5195312,14.8803719 56.726075,15.8691406 55.46875,17.0898438 C52.7954094,19.6777344 48.52295,22.7905281 41.9921875,25.1953125 C37.5732437,17.0288094 33.2397469,10.8886719 30.3710938,7.03125 C32.6538094,6.50634687 35.0463875,6.25 37.5,6.25 Z M24.21875,9.1796875 C26.7822281,12.5366219 31.3476562,18.7622063 35.9375,27.0507812 C23.2299812,30.4199219 11.5722656,30.8471687 6.93359375,30.859375 C9.00879062,21.2036125 15.5029313,13.2568375 24.21875,9.1796875 Z M62.4023438,18.6523438 C66.2109375,23.6938469 68.5791031,29.9316406 68.75,36.71875 C65.9667969,36.0961906 61.8652344,35.4858406 56.5429688,35.4492188 C53.7719719,35.4370125 50.6347656,35.632325 47.265625,36.0351562 C46.484375,34.2529313 45.6420906,32.5317375 44.8242188,30.859375 C51.8310562,28.1738281 56.6040031,24.6337906 59.765625,21.5820312 C60.8398438,20.5322281 61.6821281,19.5678719 62.4023438,18.6523438 Z M38.7695312,32.7148438 C39.4897469,34.1674812 40.2221688,35.6567375 40.9179688,37.2070312 C27.5634781,40.9057625 17.96875,52.2338875 13.8671875,57.9101562 C9.14306562,52.4414062 6.25,45.3125 6.25,37.5 C6.25,37.3657219 6.25,37.2436531 6.25,37.109375 C10.4736344,37.1582031 23.9013688,36.8652344 38.7695312,32.7148438 Z M56.5429688,41.6015625 C62.1215813,41.6015625 65.9790031,42.3828125 68.2617188,42.96875 C66.8090813,51.2939469 62.109375,58.4350594 55.46875,63.0859375 C54.2236344,55.6152344 52.1728531,48.5107437 49.7070312,41.9921875 C52.1728531,41.7480469 54.5043938,41.6015625 56.5429688,41.6015625 Z M43.359375,43.0664062 C46.1669937,50.1953125 48.52295,58.0200188 49.7070312,66.3085938 C45.9716812,67.8833 41.8212906,68.75 37.5,68.75 C30.3344719,68.75 23.7182625,66.3452156 18.4570312,62.3046875 C21.6674812,57.9101562 31.1035156,46.2158219 43.359375,43.0664062 Z" id="Shape"></path>
            </g>
        </g>
    </g>
</svg>