<?xml version="1.0" encoding="UTF-8"?>
<svg width="92px" height="78px" viewBox="0 0 92 78" version="1.1" xmlns="http://www.w3.org/2000/svg" xmlns:xlink="http://www.w3.org/1999/xlink">
    <title>icons8-octocat</title>
    <g id="Page-1" stroke="none" stroke-width="1" fill="none" fill-rule="evenodd">
        <g id="icons8-linkedin-circled" transform="translate(-1158.000000, 0.000000)" fill="#FFFFFF" fill-rule="nonzero">
            <g id="icons8-octocat" transform="translate(1158.000000, 0.000000)">
                <path d="M62,46 C58.40625,46 56,49.03125 56,54 C56,58.96875 57.78125,64.09375 62,64 C66.4375,63.898438 68.039062,59.554688 68,54 C67.96875,49.03125 65.585938,46 62,46 Z M84.523438,22.132812 C85.070312,19.445312 85.304688,9.929688 81.359376,0 C81.359376,0 72.296876,0.992188 58.59375,10.398438 C55.726562,9.601562 50.859376,9.203126 46,9.203126 C41.140626,9.203126 36.28125,9.601562 33.398438,10.390626 C19.703126,0.992188 10.648438,0 10.648438,0 C6.695312,9.929688 6.890626,19.21875 7.476562,22.132812 C2.835938,27.171876 0,33.21875 0,41.484376 C0,77.414062 29.8125,77.992188 37.335938,77.992188 C39.039062,77.992188 42.421876,77.992188 46,78 C49.578126,77.992188 52.96875,77.992188 54.664062,77.992188 C62.1875,77.992188 92,77.414062 92,41.484376 C92,33.21875 89.164062,27.171876 84.523438,22.132812 Z M46.28125,74 L46,74 C27.140626,74 12.3125,71.320312 12.3125,52.992188 C12.3125,48.601562 13.867188,44.53125 17.546876,41.148438 C23.6875,35.507812 34.070312,38.492188 45.859376,38.492188 C45.90625,38.492188 46.101562,38.492188 46.140626,38.492188 C57.929688,38.492188 68.320312,35.515626 74.460938,41.148438 C78.140626,44.53125 79.6875,48.601562 79.6875,52.992188 C79.6875,71.320312 65.140626,74 46.28125,74 Z M30,46 C26.414062,46 24,50.03125 24,55 C24,59.96875 26.414062,64 30,64 C33.59375,64 36,59.96875 36,55 C36,50.03125 33.59375,46 30,46 Z" id="Shape"></path>
            </g>
        </g>
    </g>
</svg>