{
    "asset" : {
        "generator" : "Khronos glTF Blender I/O v1.8.19",
        "version" : "2.0"
    },
    "scene" : 0,
    "scenes" : [
        {
            "name" : "Scene",
            "nodes" : [
                0
            ]
        }
    ],
    "nodes" : [
        {
            "mesh" : 0,
            "name" : "Text"
        }
    ],
    "materials" : [
        {
            "doubleSided" : true,
            "name" : "Material.002",
            "pbrMetallicRoughness" : {
                "metallicFactor" : 0,
                "roughnessFactor" : 0.5
            }
        }
    ],
    "meshes" : [
        {
            "name" : "Text",
            "primitives" : [
                {
                    "attributes" : {
                        "POSITION" : 0,
                        "NORMAL" : 1,
                        "TEXCOORD_0" : 2
                    },
                    "indices" : 3,
                    "material" : 0
                }
            ]
        }
    ],
    "accessors" : [
        {
            "bufferView" : 0,
            "componentType" : 5126,
            "count" : 5082,
            "max" : [
                4.91875696182251,
                0,
                0.005777426064014435
            ],
            "min" : [
                -4.91875696182251,
                0,
                -0.07799525558948517
            ],
            "type" : "VEC3"
        },
        {
            "bufferView" : 1,
            "componentType" : 5126,
            "count" : 5082,
            "type" : "VEC3"
        },
        {
            "bufferView" : 2,
            "componentType" : 5126,
            "count" : 5082,
            "type" : "VEC2"
        },
        {
            "bufferView" : 3,
            "componentType" : 5123,
            "count" : 10434,
            "type" : "SCALAR"
        }
    ],
    "bufferViews" : [
        {
            "buffer" : 0,
            "byteLength" : 60984,
            "byteOffset" : 0
        },
        {
            "buffer" : 0,
            "byteLength" : 60984,
            "byteOffset" : 60984
        },
        {
            "buffer" : 0,
            "byteLength" : 40656,
            "byteOffset" : 121968
        },
        {
            "buffer" : 0,
            "byteLength" : 20868,
            "byteOffset" : 162624
        }
    ],
    "buffers" : [
        {
            "byteLength" : 183492,
            "uri" : "Dots.bin"
        }
    ]
}
