<?xml version="1.0" encoding="UTF-8"?>
<svg width="110px" height="33px" viewBox="0 0 110 33" version="1.1" xmlns="http://www.w3.org/2000/svg" xmlns:xlink="http://www.w3.org/1999/xlink">
    <title>m_lab</title>
    <g id="Page-1" stroke="none" stroke-width="1" fill="none" fill-rule="evenodd">
        <g id="Artboard-Copy-2" transform="translate(-523.000000, -517.000000)" fill="#FF2D2D" fill-rule="nonzero">
            <g id="m_lab" transform="translate(523.000000, 517.000000)">
                <path d="M0.681818182,29 C0.227272727,29 0,28.7708333 0,28.3125 L0,8.14583333 C0,7.6875 0.227272727,7.45833333 0.681818182,7.45833333 L5.07575758,7.45833333 C5.53030303,7.45833333 5.75757576,7.6875 5.75757576,8.14583333 L5.75757576,8.75694444 C5.75757576,9.11342593 5.85858586,9.29166667 6.06060606,9.29166667 C6.18686869,9.29166667 6.33838384,9.2025463 6.51515152,9.02430556 C7.82828283,7.67476852 9.44444444,7 11.3636364,7 C12.6262626,7 13.6994949,7.21643519 14.5833333,7.64930556 C15.4671717,8.08217593 16.1237374,8.73148148 16.5530303,9.59722222 C16.7045455,9.82638889 16.8434343,9.94097222 16.969697,9.94097222 C17.0707071,9.94097222 17.1969697,9.83912037 17.3484848,9.63541667 C18.6363636,7.87847222 20.5176768,7 22.9924242,7 C25.3409091,7 27.0959596,7.69386574 28.2575758,9.08159722 C29.4191919,10.4693287 30,12.3854167 30,14.8298611 L30,28.3125 C30,28.7708333 29.7727273,29 29.3181818,29 L24.9242424,29 C24.469697,29 24.2424242,28.7708333 24.2424242,28.3125 L24.2424242,15.4409722 C24.2424242,14.1423611 23.989899,13.1938657 23.4848485,12.5954861 C22.979798,11.9971065 22.2222222,11.6979167 21.2121212,11.6979167 C20.2272727,11.6979167 19.469697,12.0034722 18.9393939,12.6145833 C18.5353535,13.0474537 18.2575758,13.6203704 18.1060606,14.3333333 C17.9545455,15.0462963 17.8787879,15.962963 17.8787879,17.0833333 L17.8787879,28.3125 C17.8787879,28.7708333 17.6515152,29 17.1969697,29 L12.8409091,29 C12.3863636,29 12.1590909,28.7708333 12.1590909,28.3125 L12.1590909,15.4409722 C12.1590909,14.1423611 11.9002525,13.1938657 11.3825758,12.5954861 C10.864899,11.9971065 10.0883838,11.6979167 9.0530303,11.6979167 C8.04292929,11.6979167 7.28535354,12.0162037 6.78030303,12.6527778 C6.42676768,13.0856481 6.16792929,13.6458333 6.00378788,14.3333333 C5.83964646,15.0208333 5.75757576,15.9375 5.75757576,17.0833333 L5.75757576,28.3125 C5.75757576,28.7708333 5.53030303,29 5.07575758,29 L0.681818182,29 Z" id="Path"></path>
                <polygon id="Path" points="50 33 32 33 32 29 50 29"></polygon>
                <path d="M58.126087,29 C56.4826087,29 55.2173913,28.626256 54.3304348,27.878768 C53.4434783,27.13128 53,26.0100481 53,24.5150721 L53,0.684141547 C53,0.228047182 53.2347826,0 53.7043478,0 L58.2434783,0 C58.7130435,0 58.9478261,0.228047182 58.9478261,0.684141547 L58.9478261,22.6526868 C58.9478261,23.7422455 59.4565217,24.2870249 60.473913,24.2870249 L61.2956522,24.2870249 C61.7652174,24.2870249 62,24.5150721 62,24.9711664 L62,28.3158585 C62,28.7719528 61.7652174,29 61.2956522,29 L58.126087,29 Z" id="Path"></path>
                <path d="M71.9192913,29 C69.8996063,29 68.2414698,28.4450113 66.9448819,27.335034 C65.648294,26.2250567 65,24.6723356 65,22.6768707 C65,20.531746 65.847769,18.8854875 67.5433071,17.7380952 C68.6404199,16.9897959 70.2860892,16.4160998 72.480315,16.0170068 L77.7165354,15.0442177 C78.1404199,14.9693878 78.339895,14.707483 78.3149606,14.2585034 C78.1653543,13.4104308 77.8661417,12.7369615 77.4173228,12.2380952 C76.8687664,11.6394558 76.0459318,11.3401361 74.9488189,11.3401361 C74.2007874,11.3401361 73.5150919,11.55839 72.8917323,11.994898 C72.2683727,12.4314059 71.8195538,13.0238095 71.5452756,13.7721088 C71.4455381,14.1462585 71.1961942,14.3333333 70.7972441,14.3333333 L66.5334646,14.3333333 C66.0098425,14.3333333 65.8103675,14.0839002 65.9350394,13.585034 C66.4087927,11.414966 67.4934383,9.77494331 69.1889764,8.66496599 C70.8845144,7.55498866 72.8169291,7 74.9862205,7 C76.257874,7 77.4547244,7.17460317 78.5767717,7.52380952 C79.6988189,7.87301587 80.6587927,8.3968254 81.4566929,9.0952381 C82.2545932,9.79365079 82.8343176,10.6043084 83.1958661,11.5272109 C83.5574147,12.4501134 83.7818241,13.3917234 83.8690945,14.3520408 C83.9563648,15.3123583 84,16.553288 84,18.0748299 L84,27.877551 C84,28.3265306 83.7755906,28.5510204 83.3267717,28.5510204 L78.988189,28.5510204 C78.5393701,28.5510204 78.3149606,28.3265306 78.3149606,27.877551 L78.3149606,27.1666667 C78.3149606,26.7675737 78.2401575,26.5680272 78.0905512,26.5680272 C78.015748,26.5680272 77.9035433,26.6553288 77.753937,26.829932 C77.3300525,27.3038549 76.9560367,27.6405896 76.6318898,27.8401361 C75.4849081,28.6133787 73.914042,29 71.9192913,29 Z M73.4527559,24.622449 C74.3254593,24.622449 75.148294,24.4353741 75.9212598,24.0612245 C76.7690289,23.6621315 77.3799213,23.1258503 77.753937,22.452381 C78.1279528,21.7789116 78.3523622,20.893424 78.4271654,19.7959184 L78.4271654,19.7210884 C78.4271654,19.4965986 78.3585958,19.3344671 78.2214567,19.2346939 C78.0843176,19.1349206 77.9035433,19.1099773 77.6791339,19.1598639 L74.0137795,19.8707483 C73.2906824,20.0204082 72.7234252,20.1825397 72.3120079,20.3571429 C71.9005906,20.531746 71.5577428,20.7437642 71.2834646,20.9931973 C70.8595801,21.4172336 70.6476378,21.9160998 70.6476378,22.4897959 C70.6476378,23.1882086 70.9094488,23.718254 71.4330709,24.079932 C71.9566929,24.44161 72.6299213,24.622449 73.4527559,24.622449 Z" id="Shape"></path>
                <path d="M100.586207,29 C99.5190563,29 98.5852995,28.8503226 97.7849365,28.5509677 C96.9845735,28.2516129 96.2413793,27.7402151 95.5553539,27.0167742 C95.3520871,26.8172043 95.1869328,26.7174194 95.0598911,26.7174194 C94.8820327,26.7174194 94.7931034,26.8546237 94.7931034,27.1290323 L94.7931034,27.8774194 C94.7931034,28.3264516 94.5644283,28.5509677 94.107078,28.5509677 L89.6860254,28.5509677 C89.2286751,28.5509677 89,28.3264516 89,27.8774194 L89,0.673548387 C89,0.224516129 89.2286751,0 89.6860254,0 L94.107078,0 C94.5644283,0 94.7931034,0.224516129 94.7931034,0.673548387 L94.7931034,8.71870968 C94.7931034,9.06795699 94.8947368,9.24258065 95.0980036,9.24258065 C95.199637,9.24258065 95.3520871,9.1427957 95.5553539,8.94322581 C96.2413793,8.24473118 96.9845735,7.74580645 97.7849365,7.44645161 C98.5852995,7.14709677 99.5190563,6.99741935 100.586207,6.99741935 C102.415608,6.99741935 104.041742,7.46516129 105.46461,8.40064516 C106.887477,9.33612903 107.999093,10.6333333 108.799456,12.2922581 C109.599819,13.9511828 110,15.8533333 110,17.9987097 C110,20.144086 109.599819,22.0462366 108.799456,23.7051613 C107.999093,25.364086 106.887477,26.6612903 105.46461,27.5967742 C104.041742,28.5322581 102.415608,29 100.586207,29 Z M99.0998185,24.1354839 C100.624319,24.1354839 101.850272,23.567957 102.777677,22.4329032 C103.705082,21.2978495 104.168784,19.8197849 104.168784,17.9987097 C104.168784,16.1776344 103.705082,14.6995699 102.777677,13.5645161 C101.850272,12.4294624 100.624319,11.8619355 99.0998185,11.8619355 C97.5753176,11.8619355 96.3366606,12.4294624 95.3838475,13.5645161 C94.4310345,14.6995699 93.9546279,16.1776344 93.9546279,17.9987097 C93.9546279,19.8197849 94.4310345,21.2978495 95.3838475,22.4329032 C96.3366606,23.567957 97.5753176,24.1354839 99.0998185,24.1354839 Z" id="Shape"></path>
            </g>
        </g>
    </g>
</svg>