<?xml version="1.0" encoding="utf-8"?>
<!-- Generator: Adobe Illustrator 24.1.2, SVG Export Plug-In . SVG Version: 6.00 Build 0)  -->
<svg version="1.1" id="Ebene_1" xmlns="http://www.w3.org/2000/svg" xmlns:xlink="http://www.w3.org/1999/xlink" x="0px" y="0px"
	 viewBox="0 0 161.8 30.9" style="enable-background:new 0 0 161.8 30.9;" xml:space="preserve">
<style type="text/css">
	.st0{fill:#1D1D1F;}
</style>
<g>
	<path class="st0" d="M0.2,2.4h9.5c6.7,0,10.5,3,10.5,8.8v0.2c0,5.8-4,8.6-10.3,8.6H6.4v10H0.2V2.4z M9.6,15.6c3,0,4.7-1.5,4.7-4.2
		v-0.2c0-2.9-1.7-4.1-4.7-4.1H6.4v8.4H9.6z"/>
	<path class="st0" d="M20.2,20.1v-0.3c0-6.3,4.6-10.4,10.6-10.4c6,0,10.6,4,10.6,10.3V20c0,6.4-4.6,10.4-10.6,10.4
		C24.8,30.4,20.2,26.4,20.2,20.1z M35.8,20v-0.3c0-3.8-1.8-6.2-4.9-6.2c-3.1,0-4.9,2.2-4.9,6.1V20c0,3.8,1.8,6.2,4.9,6.2
		C33.9,26.1,35.8,23.8,35.8,20z"/>
	<path class="st0" d="M42.8,9.8h5.6v3.8c1.3-2.7,3.2-4.1,6.5-4.2v5.2c-4.1,0-6.5,1.3-6.5,5.2V30h-5.6V9.8z"/>
	<path class="st0" d="M58.6,24V13.8H56v-4h2.6V5.5h5.5v4.3h4.2v4h-4.2v9.7c0,1.6,0.8,2.4,2.2,2.4c0.8,0,1.5-0.1,2.1-0.4v4.3
		c-0.8,0.3-1.9,0.5-3.4,0.5C60.9,30.3,58.6,28.2,58.6,24z"/>
	<path class="st0" d="M72,13.8h-2.7v-4H72V7.5c0-4.7,2.7-7,7.2-7c1.2,0,2,0.1,2.9,0.4v4.2c-0.5-0.2-1.2-0.3-2-0.3
		c-1.8,0-2.5,1.1-2.5,2.7v2.5h4.4v4h-4.4V30H72V13.8z"/>
	<path class="st0" d="M82.3,20.1v-0.3c0-6.3,4.6-10.4,10.6-10.4c6,0,10.6,4,10.6,10.3V20c0,6.4-4.6,10.4-10.6,10.4
		C86.9,30.4,82.3,26.4,82.3,20.1z M97.9,20v-0.3c0-3.8-1.8-6.2-4.9-6.2c-3.1,0-4.9,2.2-4.9,6.1V20c0,3.8,1.8,6.2,4.9,6.2
		C96.1,26.1,97.9,23.8,97.9,20z"/>
	<path class="st0" d="M105.4,0.7h5.5V30h-5.5V0.7z"/>
	<path class="st0" d="M113.3,4.1c0-1.7,1.4-3,3.2-3c1.8,0,3.2,1.3,3.2,3c0,1.7-1.4,3-3.2,3C114.7,7.1,113.3,5.8,113.3,4.1z
		 M113.8,9.8h5.5V30h-5.5V9.8z"/>
	<path class="st0" d="M121.2,20.1v-0.3c0-6.3,4.6-10.4,10.6-10.4c6,0,10.6,4,10.6,10.3V20c0,6.4-4.6,10.4-10.6,10.4
		C125.8,30.4,121.2,26.4,121.2,20.1z M136.7,20v-0.3c0-3.8-1.8-6.2-4.9-6.2c-3.1,0-4.9,2.2-4.9,6.1V20c0,3.8,1.8,6.2,4.9,6.2
		C134.9,26.1,136.7,23.8,136.7,20z"/>
	<path class="st0" d="M143.7,23.6h5.2c0.2,1.8,1.1,2.8,3.5,2.8c2.2,0,3.2-0.8,3.2-2.2c0-1.4-1.2-2-4.1-2.4c-5.3-0.8-7.4-2.3-7.4-6.3
		c0-4.2,3.8-6.3,8-6.3c4.5,0,7.8,1.6,8.3,6.2h-5.1c-0.3-1.7-1.2-2.4-3.2-2.4c-1.8,0-2.8,0.8-2.8,2.1c0,1.3,1,1.8,3.9,2.2
		c5,0.7,7.8,2,7.8,6.3c0,4.3-3.2,6.6-8.5,6.6C147,30.4,143.9,28,143.7,23.6z"/>
</g>
</svg>
