<?xml version="1.0" encoding="UTF-8"?>
<svg width="360px" height="367px" viewBox="0 0 360 367" version="1.1" xmlns="http://www.w3.org/2000/svg" xmlns:xlink="http://www.w3.org/1999/xlink">
    <title>icons8-google-scholar</title>
    <g id="Page-3" stroke="none" stroke-width="1" fill="none" fill-rule="evenodd">
        <g id="Artboard" transform="translate(-180.000000, -176.000000)" fill="#000000" fill-rule="nonzero">
            <g id="icons8-google-scholar" transform="translate(180.000000, 176.000000)">
                <path d="M169.411765,0 L0,106.147458 L116.305147,106.147458 C115.868948,107.750255 115.16552,109.206991 114.816176,110.874336 C113.842059,116.011873 113.079043,121.662236 113.079045,127.542794 C113.079045,203.353309 190.381426,194.797166 190.381426,194.797166 L190.381426,214.119336 C190.381426,221.952997 200.631176,219.240611 201.838235,235.141501 C196.713529,235.141501 94.7564344,232.198562 94.7564344,301.151951 C94.7564344,370.360094 184.756426,366.955074 184.756426,366.955074 C184.756426,366.955074 288.694842,371.614948 288.694842,286.017638 C288.737216,234.875792 229.177398,218.228559 229.177398,197.699641 C229.177398,176.915968 274.053304,170.810494 274.053304,122.152503 C274.053304,100.880553 272.601064,85.7299945 263.092828,74.9666423 C262.351652,74.2236101 261.868892,73.7134399 261.148892,73.2251616 C260.985261,73.0723326 260.777224,72.961037 260.611221,72.810522 L263.216922,72.810522 L307.058824,39.8467601 L307.058824,84.9179665 C307.046741,85.7403064 307.130022,86.5612684 307.306991,87.3643342 C300.535267,91.1624898 296.377636,98.3690616 296.470588,106.147458 L296.470588,127.37695 C296.362582,135.033067 300.375006,142.154403 306.971425,146.01406 C313.567844,149.873716 321.726274,149.873716 328.322693,146.01406 C334.919111,142.154403 338.931536,135.033067 338.823529,127.37695 L338.823529,106.147458 C338.916482,98.3690616 334.75885,91.1624898 327.987127,87.3643342 C328.164096,86.5612684 328.247377,85.7403064 328.235294,84.9179665 L328.235294,23.8831781 L360,0 L169.411765,0 Z M184.053304,64.8079994 C190.148167,64.5313515 196.283054,66.0157579 202.12776,69.3275586 C206.511289,71.5354257 210.624162,74.6880052 214.287692,78.6154611 C221.847692,86.1943897 228.208235,97.1982317 231.617647,110.169451 C239.664706,140.973441 229.210475,170.595545 207.504593,176.221361 C186.031652,182.314225 162.098936,162.218197 153.818936,131.647729 C150.155407,116.744624 150.660995,102.332453 154.811584,90.8472977 C154.850718,90.6991668 154.93644,90.5797891 154.977014,90.4326581 C155.048231,90.3976146 155.156188,90.3004069 155.225181,90.2668027 C156.41496,85.7259524 158.359744,81.6521658 160.726108,78.2837503 C165.078805,71.9088843 170.819513,67.5912027 177.973348,65.6787397 C179.985113,65.1904614 182.021696,64.9002139 184.053304,64.8079994 Z M192.325362,248.078222 C228.177127,245.382077 258.698393,265.17361 260.900725,292.071355 C262.383099,318.735617 234.800725,342.454925 198.694842,344.896316 C162.843099,347.337708 131.87614,327.816193 130.160846,301.151951 C128.445552,274.254185 156.21948,250.774368 192.325362,248.078222 Z" id="Shape"></path>
            </g>
        </g>
    </g>
</svg>